<svg width="1400" height="1120" viewBox="0 0 1400 1120" xmlns="http://www.w3.org/2000/svg">
<defs>
  <linearGradient id="bgGrad" x1="0%" y1="0%" x2="100%" y2="100%">
    <stop offset="0%" stop-color="#0A0806"/>
    <stop offset="55%" stop-color="#14100B"/>
    <stop offset="100%" stop-color="#1C160E"/>
  </linearGradient>
  <linearGradient id="goldGrad" x1="0%" y1="0%" x2="100%" y2="0%">
    <stop offset="0%" stop-color="#E8C77E"/>
    <stop offset="50%" stop-color="#C9A44C"/>
    <stop offset="100%" stop-color="#9C7A2E"/>
  </linearGradient>
  <linearGradient id="holoSweep" x1="0%" y1="0%" x2="100%" y2="0%">
    <stop offset="0%" stop-color="#E8C77E" stop-opacity="0"/>
    <stop offset="40%" stop-color="#E8C77E" stop-opacity="0"/>
    <stop offset="50%" stop-color="#FFF8E7" stop-opacity="0.4"/>
    <stop offset="60%" stop-color="#E8C77E" stop-opacity="0"/>
    <stop offset="100%" stop-color="#E8C77E" stop-opacity="0"/>
  </linearGradient>
  <linearGradient id="thumbSweep" x1="0%" y1="0%" x2="100%" y2="0%">
    <stop offset="0%" stop-color="#E8C77E" stop-opacity="0"/>
    <stop offset="35%" stop-color="#E8C77E" stop-opacity="0"/>
    <stop offset="45%" stop-color="#FFF8E7" stop-opacity="0.25"/>
    <stop offset="55%" stop-color="#FFF8E7" stop-opacity="0.25"/>
    <stop offset="65%" stop-color="#E8C77E" stop-opacity="0"/>
    <stop offset="100%" stop-color="#E8C77E" stop-opacity="0"/>
  </linearGradient>
  <radialGradient id="vignette" cx="50%" cy="50%" r="80%">
    <stop offset="0%" stop-color="#000000" stop-opacity="0"/>
    <stop offset="100%" stop-color="#000000" stop-opacity="0.35"/>
  </radialGradient>
  <filter id="cardShadow" x="-30%" y="-30%" width="160%" height="160%">
    <feDropShadow dx="0" dy="6" stdDeviation="12" flood-color="#000000" flood-opacity="0.6"/>
  </filter>
  <filter id="goldGlow" x="-80%" y="-80%" width="260%" height="260%">
    <feGaussianBlur stdDeviation="4" result="b"/>
    <feMerge><feMergeNode in="b"/><feMergeNode in="SourceGraphic"/></feMerge>
  </filter>
  <pattern id="hexPattern" width="46" height="80" patternUnits="userSpaceOnUse">
    <path d="M23 0 L46 13 L46 40 L23 53 L0 40 L0 13 Z" fill="none" stroke="#C9A44C" stroke-opacity="0.04" stroke-width="1"/>
    <path d="M23 40 L46 53 L46 80 L23 93 L0 80 L0 53 Z" fill="none" stroke="#C9A44C" stroke-opacity="0.04" stroke-width="1"/>
  </pattern>
  <clipPath id="canvasClip"><rect x="0" y="0" width="1400" height="1120" rx="20" ry="20"/></clipPath>
  <clipPath id="cardClip"><rect x="0" y="0" width="406" height="460" rx="16"/></clipPath>
  <clipPath id="thumbClip"><rect x="10" y="10" width="386" height="220" rx="8"/></clipPath>
  <style>
    <![CDATA[
      @keyframes fadeInUp { 0% { transform: translateY(40px); opacity: 0; } 100% { transform: translateY(0); opacity: 1; } }
      @keyframes scaleIn { 0% { transform: scale(0.92); opacity: 0; } 100% { transform: scale(1); opacity: 1; } }
      @keyframes holoSweep { 0% { transform: translateX(-800px); opacity: 0; } 10% { opacity: 1; } 90% { opacity: 1; } 100% { transform: translateX(800px); opacity: 0; } }
      .card-outer { opacity: 0; }
      .card-outer.e1 { animation: scaleIn 0.6s ease 0s forwards; }
      .card-outer.e2 { animation: fadeInUp 0.6s ease 0.1s forwards; }
      .card-outer.e3 { animation: fadeInUp 0.6s ease 0.2s forwards; }
      .card-outer.e4 { animation: fadeInUp 0.6s ease 0.3s forwards; }
      .card-outer.e5 { animation: fadeInUp 0.6s ease 0.4s forwards; }
      .card-outer.e6 { animation: fadeInUp 0.6s ease 0.5s forwards; }
      .card-inner { transition: transform 0.35s ease, filter 0.35s ease; }
      .card-inner:hover { transform: translateY(-2px); filter: url(#hoverShadow)); }
      .card-inner:hover .card-bg { stroke-opacity: 0.8; fill: rgba(201,164,76,0.08); stroke-width: 1.5; transition: fill 0.35s ease, stroke-opacity 0.35s ease, stroke-width 0.35s ease; }
      .card-inner:hover .holo-overlay { animation: holoSweep 0.6s ease forwards; }
      .card-inner:hover .thumb-sweep { animation: holoSweep 0.5s ease forwards; }
      .card-inner:hover .title-text { filter: url(#goldGlow); transition: filter 0.35s ease; }
      .card-bg { transition: fill 0.35s ease, stroke-opacity 0.35s ease, stroke-width 0.35s ease; }
      .holo-overlay { opacity: 0; pointer-events: none; }
      .thumb-img { transition: filter 0.4s ease; transform: none; }
      .thumb-sweep { opacity: 0; pointer-events: none; }
      .title-text { transition: filter 0.35s ease; }
    ]]>
  </style>

  <filter id="hoverShadow" x="-50%" y="-50%" width="200%" height="200%">
    <feDropShadow dx="0" dy="4" stdDeviation="8" flood-color="#C9A44C" flood-opacity="0.2"/>
  </filter>
</defs>
<g clip-path="url(#canvasClip)">
  <rect x="0" y="0" width="1400" height="1120" fill="url(#bgGrad)"/>
  <rect x="0" y="0" width="1400" height="1120" fill="url(#hexPattern)"/>
  <rect x="0" y="0" width="1400" height="1120" fill="url(#vignette)"/>
  <rect x="1.5" y="1.5" width="1397" height="1117" rx="19" ry="19" fill="none" stroke="url(#goldGrad)" stroke-width="1.3" stroke-opacity="0.5" stroke-dasharray="50 30">
    <animate attributeName="stroke-dashoffset" values="0;300" dur="10s" repeatCount="indefinite"/>
  </rect>
  <!-- HEADING -->
  <text x="700" y="80" text-anchor="middle" font-family="'Arial Black','Segoe UI',sans-serif" font-weight="800" font-size="42" fill="#F5F2EA">Featured Projects</text>
  <rect x="560" y="100" width="280" height="3" rx="1.5" fill="url(#goldGrad)"/>
  <text x="700" y="125" text-anchor="middle" font-family="Consolas,monospace" font-size="12" fill="#8A8272" letter-spacing="3">HOVER TO EXPLORE</text>

  <!-- PROJECT 1: Gifoy Shop -->
  <g transform="translate(60, 160)">
    <g class="card-outer e1">
      <g class="card-inner">
        <rect class="card-bg" clip-path="url(#cardClip)" x="0" y="0" width="406" height="460" rx="16" ry="16" fill="rgba(201,164,76,0.02)" stroke="url(#goldGrad)" stroke-width="1.1" stroke-opacity="0.35" filter="url(#cardShadow)"/>
        <rect class="holo-overlay" clip-path="url(#cardClip)" x="0" y="0" width="406" height="460" rx="16" ry="16" fill="url(#holoSweep)" opacity="0"/>
        <g clip-path="url(#thumbClip)">
          <image class="thumb-img" x="10" y="10" width="386" height="220" href="https://raw.githubusercontent.com/Hassan0703/Hassan0703/main/ecommerce.jpeg" preserveAspectRatio="xMidYMid slice"/>
          <rect class="thumb-sweep" x="10" y="10" width="386" height="220" fill="url(#thumbSweep)" opacity="0"/>
        </g>
        <g transform="translate(20, 255)" font-family="'Segoe UI',sans-serif">
          <text class="title-text" x="0" y="24" font-family="'Arial Black',sans-serif" font-weight="800" font-size="20" fill="#F5F2EA">Gifoy Shop</text>
          <text x="0" y="44" font-size="12" fill="#C9A44C">Ecommerce × Frappe Integration</text>
          <text class="desc-text" x="0" y="72" font-size="11.5" fill="#D9D3C4">Storefront with live Frappe/ERPNext</text>
          <text class="desc-text" x="0" y="88" font-size="11.5" fill="#D9D3C4">backend. Custom ecommerce solution.</text>
          <g transform="translate(0, 112)">
            <g transform="translate(0, 0)"><g class="tag-chip">
              <rect width="52" height="20" rx="10" fill="rgba(201,164,76,.06)" stroke="url(#goldGrad)" stroke-width="0.7" stroke-opacity="0.5"/>
              <text x="26" y="14" text-anchor="middle" font-size="8" font-weight="700" fill="#EDE7D8">Python</text>
            </g>
            </g>
            <g transform="translate(56, 0)"><g class="tag-chip">
              <rect width="52" height="20" rx="10" fill="rgba(201,164,76,.06)" stroke="url(#goldGrad)" stroke-width="0.7" stroke-opacity="0.5"/>
              <text x="26" y="14" text-anchor="middle" font-size="8" font-weight="700" fill="#EDE7D8">Frappe</text>
            </g>
            </g>
            <g transform="translate(112, 0)"><g class="tag-chip">
              <rect width="58" height="20" rx="10" fill="rgba(201,164,76,.06)" stroke="url(#goldGrad)" stroke-width="0.7" stroke-opacity="0.5"/>
              <text x="29" y="14" text-anchor="middle" font-size="8" font-weight="700" fill="#EDE7D8">ERPNext</text>
            </g>
            </g>
          </g>
          <g transform="translate(0, 148)">
            <g transform="translate(20, 0)"><g class="btn-link">
              <rect width="140" height="34" rx="17" fill="rgba(201,164,76,.06)" stroke="url(#goldGrad)" stroke-width="0.7" stroke-opacity="0.5"/>
              <g class="btn-icon" transform="translate(14, 9)">
                              <path d="M12 0C5.37 0 0 5.37 0 12c0 5.3 3.438 9.8 8.205 11.385.6.113.82-.258.82-.577 0-.285-.01-1.04-.015-2.04-3.338.724-4.042-1.61-4.042-1.61C4.422 18.07 3.633 17.7 3.633 17.7c-1.087-.744.084-.729.084-.729 1.205.084 1.838 1.236 1.838 1.236 1.07 1.835 2.809 1.305 3.495.998.108-.776.417-1.305.76-1.605-2.665-.3-5.466-1.332-5.466-5.93 0-1.31.465-2.38 1.235-3.22-.135-.303-.54-1.523.105-3.176 0 0 1.005-.322 3.3 1.23.96-.267 1.98-.399 3-.405 1.02.006 2.04.138 3 .405 2.28-1.552 3.285-1.23 3.285-1.23.645 1.653.24 2.873.12 3.176.765.84 1.23 1.91 1.23 3.22 0 4.61-2.805 5.625-5.475 5.92.42.36.81 1.096.81 2.22 0 1.606-.015 2.896-.015 3.286 0 .315.21.69.825.57C20.565 21.795 24 17.295 24 12c0-6.63-5.37-12-12-12z" fill="#EDE7D8"/>
              </g>
              <text x="48" y="22" font-size="10.5" font-weight="600" fill="#EDE7D8">GitHub</text>
            </g>
            </g>
            <g transform="translate(205, 0)"><g class="btn-link">
              <rect width="140" height="34" rx="17" fill="rgba(201,164,76,.06)" stroke="url(#goldGrad)" stroke-width="0.7" stroke-opacity="0.5"/>
              <g class="btn-icon" transform="translate(14, 9)">
                              <path d="M23 1l-9 9m9-9v8m0-8h-8" stroke="#EDE7D8" stroke-width="2" fill="none" stroke-linecap="round" stroke-linejoin="round"/>
              <path d="M17 13v6a2 2 0 01-2 2H5a2 2 0 01-2-2V9a2 2 0 012-2h6" stroke="#EDE7D8" stroke-width="2" fill="none" stroke-linecap="round" stroke-linejoin="round"/>
              </g>
              <text x="48" y="22" font-size="10.5" font-weight="600" fill="#EDE7D8">Live Demo</text>
            </g>
            </g>
          </g>
        </g>
      </g>
    </g>
  </g>
  <!-- PROJECT 2: NxT Car Rental -->
  <g transform="translate(496, 160)">
    <g class="card-outer e2">
      <g class="card-inner">
        <rect class="card-bg" clip-path="url(#cardClip)" x="0" y="0" width="406" height="460" rx="16" ry="16" fill="rgba(201,164,76,0.02)" stroke="url(#goldGrad)" stroke-width="1.1" stroke-opacity="0.35" filter="url(#cardShadow)"/>
        <rect class="holo-overlay" clip-path="url(#cardClip)" x="0" y="0" width="406" height="460" rx="16" ry="16" fill="url(#holoSweep)" opacity="0"/>
        <g clip-path="url(#thumbClip)">
          <image class="thumb-img" x="10" y="10" width="386" height="220" href="https://raw.githubusercontent.com/Hassan0703/Hassan0703/main/car_rms.jpeg" preserveAspectRatio="xMidYMid slice"/>
          <rect class="thumb-sweep" x="10" y="10" width="386" height="220" fill="url(#thumbSweep)" opacity="0"/>
        </g>
        <g transform="translate(20, 255)" font-family="'Segoe UI',sans-serif">
          <text class="title-text" x="0" y="24" font-family="'Arial Black',sans-serif" font-weight="800" font-size="20" fill="#F5F2EA">NxT Car Rental</text>
          <text x="0" y="44" font-size="12" fill="#C9A44C">Car Rental Management Software</text>
          <text class="desc-text" x="0" y="72" font-size="11.5" fill="#D9D3C4">Car Rental Management with live</text>
          <text class="desc-text" x="0" y="88" font-size="11.5" fill="#D9D3C4">Frappe/ERPNext backend integration.</text>
          <g transform="translate(0, 112)">
            <g transform="translate(0, 0)"><g class="tag-chip">
              <rect width="52" height="20" rx="10" fill="rgba(201,164,76,.06)" stroke="url(#goldGrad)" stroke-width="0.7" stroke-opacity="0.5"/>
              <text x="26" y="14" text-anchor="middle" font-size="8" font-weight="700" fill="#EDE7D8">Python</text>
            </g>
            </g>
            <g transform="translate(0, 0)"><g class="tag-chip">
              <rect width="52" height="20" rx="10" fill="rgba(201,164,76,.06)" stroke="url(#goldGrad)" stroke-width="0.7" stroke-opacity="0.5"/>
              <text x="26" y="14" text-anchor="middle" font-size="8" font-weight="700" fill="#EDE7D8">Frappe</text>
            </g>
            </g>
            <g transform="translate(0, 0)"><g class="tag-chip">
              <rect width="58" height="20" rx="10" fill="rgba(201,164,76,.06)" stroke="url(#goldGrad)" stroke-width="0.7" stroke-opacity="0.5"/>
              <text x="29" y="14" text-anchor="middle" font-size="8" font-weight="700" fill="#EDE7D8">ERPNext</text>
            </g>
            </g>
          </g>
          <g transform="translate(0, 148)">
            <g transform="translate(20, 0)"><g class="btn-link">
              <rect width="140" height="34" rx="17" fill="rgba(201,164,76,.06)" stroke="url(#goldGrad)" stroke-width="0.7" stroke-opacity="0.5"/>
              <g class="btn-icon" transform="translate(14, 9)">
                              <path d="M12 0C5.37 0 0 5.37 0 12c0 5.3 3.438 9.8 8.205 11.385.6.113.82-.258.82-.577 0-.285-.01-1.04-.015-2.04-3.338.724-4.042-1.61-4.042-1.61C4.422 18.07 3.633 17.7 3.633 17.7c-1.087-.744.084-.729.084-.729 1.205.084 1.838 1.236 1.838 1.236 1.07 1.835 2.809 1.305 3.495.998.108-.776.417-1.305.76-1.605-2.665-.3-5.466-1.332-5.466-5.93 0-1.31.465-2.38 1.235-3.22-.135-.303-.54-1.523.105-3.176 0 0 1.005-.322 3.3 1.23.96-.267 1.98-.399 3-.405 1.02.006 2.04.138 3 .405 2.28-1.552 3.285-1.23 3.285-1.23.645 1.653.24 2.873.12 3.176.765.84 1.23 1.91 1.23 3.22 0 4.61-2.805 5.625-5.475 5.92.42.36.81 1.096.81 2.22 0 1.606-.015 2.896-.015 3.286 0 .315.21.69.825.57C20.565 21.795 24 17.295 24 12c0-6.63-5.37-12-12-12z" fill="#EDE7D8"/>
              </g>
              <text x="48" y="22" font-size="10.5" font-weight="600" fill="#EDE7D8">GitHub</text>
            </g>
            </g>
            <g transform="translate(205, 0)"><g class="btn-link">
              <rect width="140" height="34" rx="17" fill="rgba(201,164,76,.06)" stroke="url(#goldGrad)" stroke-width="0.7" stroke-opacity="0.5"/>
              <g class="btn-icon" transform="translate(14, 9)">
                              <path d="M23 1l-9 9m9-9v8m0-8h-8" stroke="#EDE7D8" stroke-width="2" fill="none" stroke-linecap="round" stroke-linejoin="round"/>
              <path d="M17 13v6a2 2 0 01-2 2H5a2 2 0 01-2-2V9a2 2 0 012-2h6" stroke="#EDE7D8" stroke-width="2" fill="none" stroke-linecap="round" stroke-linejoin="round"/>
              </g>
              <text x="48" y="22" font-size="10.5" font-weight="600" fill="#EDE7D8">Live Demo</text>
            </g>
            </g>
          </g>
        </g>
      </g>
    </g>
  </g>
  <!-- PROJECT 3: Everest Invoicing -->
  <g transform="translate(932, 160)">
    <g class="card-outer e3">
      <g class="card-inner">
        <rect class="card-bg" clip-path="url(#cardClip)" x="0" y="0" width="406" height="460" rx="16" ry="16" fill="rgba(201,164,76,0.02)" stroke="url(#goldGrad)" stroke-width="1.1" stroke-opacity="0.35" filter="url(#cardShadow)"/>
        <rect class="holo-overlay" clip-path="url(#cardClip)" x="0" y="0" width="406" height="460" rx="16" ry="16" fill="url(#holoSweep)" opacity="0"/>
        <g clip-path="url(#thumbClip)">
          <image class="thumb-img" x="10" y="10" width="386" height="220" href="https://raw.githubusercontent.com/Hassan0703/Hassan0703/main/Everest%20Thumbnail.png" preserveAspectRatio="xMidYMid slice"/>
          <rect class="thumb-sweep" x="10" y="10" width="386" height="220" fill="url(#thumbSweep)" opacity="0"/>
        </g>
        <g transform="translate(20, 255)" font-family="'Segoe UI',sans-serif">
          <text class="title-text" x="0" y="24" font-family="'Arial Black',sans-serif" font-weight="800" font-size="20" fill="#F5F2EA">Everest Invoicing</text>
          <text x="0" y="44" font-size="12" fill="#C9A44C">SQL-Lite × Flask × HTML-CSS</text>
          <text class="desc-text" x="0" y="72" font-size="11.5" fill="#D9D3C4">Everest Invoicing System with live</text>
          <text class="desc-text" x="0" y="88" font-size="11.5" fill="#D9D3C4">SQL-Lite × Flask × HTML-CSS stack.</text>
          <g transform="translate(0, 112)">
            <g transform="translate(0, 0)"><g class="tag-chip">
              <rect width="52" height="20" rx="10" fill="rgba(201,164,76,.06)" stroke="url(#goldGrad)" stroke-width="0.7" stroke-opacity="0.5"/>
              <text x="26" y="14" text-anchor="middle" font-size="8" font-weight="700" fill="#EDE7D8">Python</text>
            </g>
            </g>
            <g transform="translate(56, 0)"><g class="tag-chip">
              <rect width="44" height="20" rx="10" fill="rgba(201,164,76,.06)" stroke="url(#goldGrad)" stroke-width="0.7" stroke-opacity="0.5"/>
              <text x="22" y="14" text-anchor="middle" font-size="8" font-weight="700" fill="#EDE7D8">Flask</text>
            </g>
            </g>
            <g transform="translate(104, 0)"><g class="tag-chip">
              <rect width="52" height="20" rx="10" fill="rgba(201,164,76,.06)" stroke="url(#goldGrad)" stroke-width="0.7" stroke-opacity="0.5"/>
              <text x="26" y="14" text-anchor="middle" font-size="8" font-weight="700" fill="#EDE7D8">SQLite</text>
            </g>
            </g>
          </g>
          <g transform="translate(0, 148)">
            <g transform="translate(20, 0)"><g class="btn-link">
              <rect width="140" height="34" rx="17" fill="rgba(201,164,76,.06)" stroke="url(#goldGrad)" stroke-width="0.7" stroke-opacity="0.5"/>
              <g class="btn-icon" transform="translate(14, 9)">
                              <path d="M12 0C5.37 0 0 5.37 0 12c0 5.3 3.438 9.8 8.205 11.385.6.113.82-.258.82-.577 0-.285-.01-1.04-.015-2.04-3.338.724-4.042-1.61-4.042-1.61C4.422 18.07 3.633 17.7 3.633 17.7c-1.087-.744.084-.729.084-.729 1.205.084 1.838 1.236 1.838 1.236 1.07 1.835 2.809 1.305 3.495.998.108-.776.417-1.305.76-1.605-2.665-.3-5.466-1.332-5.466-5.93 0-1.31.465-2.38 1.235-3.22-.135-.303-.54-1.523.105-3.176 0 0 1.005-.322 3.3 1.23.96-.267 1.98-.399 3-.405 1.02.006 2.04.138 3 .405 2.28-1.552 3.285-1.23 3.285-1.23.645 1.653.24 2.873.12 3.176.765.84 1.23 1.91 1.23 3.22 0 4.61-2.805 5.625-5.475 5.92.42.36.81 1.096.81 2.22 0 1.606-.015 2.896-.015 3.286 0 .315.21.69.825.57C20.565 21.795 24 17.295 24 12c0-6.63-5.37-12-12-12z" fill="#EDE7D8"/>
              </g>
              <text x="48" y="22" font-size="10.5" font-weight="600" fill="#EDE7D8">GitHub</text>
            </g>
            </g>
            <g transform="translate(205, 0)"><g class="btn-link">
              <rect width="140" height="34" rx="17" fill="rgba(201,164,76,.06)" stroke="url(#goldGrad)" stroke-width="0.7" stroke-opacity="0.5"/>
              <g class="btn-icon" transform="translate(14, 9)">
                              <path d="M23 1l-9 9m9-9v8m0-8h-8" stroke="#EDE7D8" stroke-width="2" fill="none" stroke-linecap="round" stroke-linejoin="round"/>
              <path d="M17 13v6a2 2 0 01-2 2H5a2 2 0 01-2-2V9a2 2 0 012-2h6" stroke="#EDE7D8" stroke-width="2" fill="none" stroke-linecap="round" stroke-linejoin="round"/>
              </g>
              <text x="48" y="22" font-size="10.5" font-weight="600" fill="#EDE7D8">Live Demo</text>
            </g>
            </g>
          </g>
        </g>
      </g>
    </g>
  </g>
  <!-- PROJECT 4: FrapXel -->
  <g transform="translate(60, 630)">
    <g class="card-outer e4">
      <g class="card-inner">
        <rect class="card-bg" clip-path="url(#cardClip)" x="0" y="0" width="406" height="460" rx="16" ry="16" fill="rgba(201,164,76,0.02)" stroke="url(#goldGrad)" stroke-width="1.1" stroke-opacity="0.35" filter="url(#cardShadow)"/>
        <rect class="holo-overlay" clip-path="url(#cardClip)" x="0" y="0" width="406" height="460" rx="16" ry="16" fill="url(#holoSweep)" opacity="0"/>
        <g clip-path="url(#thumbClip)">
          <image class="thumb-img" x="10" y="10" width="386" height="220" href="https://raw.githubusercontent.com/Hassan0703/Hassan0703/main/Landing%20pages.png" preserveAspectRatio="xMidYMid slice"/>
          <rect class="thumb-sweep" x="10" y="10" width="386" height="220" fill="url(#thumbSweep)" opacity="0"/>
        </g>
        <g transform="translate(20, 255)" font-family="'Segoe UI',sans-serif">
          <g transform="translate(0, -14)">
            <rect width="68" height="22" rx="11" fill="rgba(76,175,80,0.12)" stroke="#4CAF50" stroke-width="0.7" stroke-opacity="0.6"/>
            <text x="34" y="15" text-anchor="middle" font-family="Consolas,monospace" font-size="7.5" font-weight="700" fill="#4CAF50">LIVE</text>
          </g>
          <text class="title-text" x="0" y="24" font-family="'Arial Black',sans-serif" font-weight="800" font-size="20" fill="#F5F2EA">FrapXel</text>
          <text x="0" y="44" font-size="12" fill="#C9A44C">HTML × CSS - Complete Website</text>
          <text class="desc-text" x="0" y="72" font-size="11.5" fill="#D9D3C4">FrapXel Custom Namming Series</text>
          <text class="desc-text" x="0" y="88" font-size="11.5" fill="#D9D3C4">for Frappe/ERPNext Applications.</text>
          <g transform="translate(0, 112)">
            <g transform="translate(0, 0)"><g class="tag-chip">
              <rect width="40" height="20" rx="10" fill="rgba(201,164,76,.06)" stroke="url(#goldGrad)" stroke-width="0.7" stroke-opacity="0.5"/>
              <text x="20" y="14" text-anchor="middle" font-size="8" font-weight="700" fill="#EDE7D8">HTML</text>
            </g>
            </g>
            <g transform="translate(44, 0)"><g class="tag-chip">
              <rect width="38" height="20" rx="10" fill="rgba(201,164,76,.06)" stroke="url(#goldGrad)" stroke-width="0.7" stroke-opacity="0.5"/>
              <text x="19" y="14" text-anchor="middle" font-size="8" font-weight="700" fill="#EDE7D8">CSS</text>
            </g>
            </g>
          </g>
          <g transform="translate(0, 148)">
            <g transform="translate(20, 0)"><g class="btn-link">
              <rect width="140" height="34" rx="17" fill="rgba(201,164,76,.06)" stroke="url(#goldGrad)" stroke-width="0.7" stroke-opacity="0.5"/>
              <g class="btn-icon" transform="translate(14, 9)">
                              <path d="M12 0C5.37 0 0 5.37 0 12c0 5.3 3.438 9.8 8.205 11.385.6.113.82-.258.82-.577 0-.285-.01-1.04-.015-2.04-3.338.724-4.042-1.61-4.042-1.61C4.422 18.07 3.633 17.7 3.633 17.7c-1.087-.744.084-.729.084-.729 1.205.084 1.838 1.236 1.838 1.236 1.07 1.835 2.809 1.305 3.495.998.108-.776.417-1.305.76-1.605-2.665-.3-5.466-1.332-5.466-5.93 0-1.31.465-2.38 1.235-3.22-.135-.303-.54-1.523.105-3.176 0 0 1.005-.322 3.3 1.23.96-.267 1.98-.399 3-.405 1.02.006 2.04.138 3 .405 2.28-1.552 3.285-1.23 3.285-1.23.645 1.653.24 2.873.12 3.176.765.84 1.23 1.91 1.23 3.22 0 4.61-2.805 5.625-5.475 5.92.42.36.81 1.096.81 2.22 0 1.606-.015 2.896-.015 3.286 0 .315.21.69.825.57C20.565 21.795 24 17.295 24 12c0-6.63-5.37-12-12-12z" fill="#EDE7D8"/>
              </g>
              <text x="48" y="22" font-size="10.5" font-weight="600" fill="#EDE7D8">GitHub</text>
            </g>
            </g>
            <g transform="translate(205, 0)"><g class="btn-link">
              <rect width="140" height="34" rx="17" fill="rgba(201,164,76,.06)" stroke="url(#goldGrad)" stroke-width="0.7" stroke-opacity="0.5"/>
              <g class="btn-icon" transform="translate(14, 9)">
                              <path d="M23 1l-9 9m9-9v8m0-8h-8" stroke="#EDE7D8" stroke-width="2" fill="none" stroke-linecap="round" stroke-linejoin="round"/>
              <path d="M17 13v6a2 2 0 01-2 2H5a2 2 0 01-2-2V9a2 2 0 012-2h6" stroke="#EDE7D8" stroke-width="2" fill="none" stroke-linecap="round" stroke-linejoin="round"/>
              </g>
              <text x="48" y="22" font-size="10.5" font-weight="600" fill="#EDE7D8">Live Demo</text>
            </g>
            </g>
          </g>
        </g>
      </g>
    </g>
  </g>
  <!-- PROJECT 5: ERPNova UI -->
  <g transform="translate(496, 630)">
    <g class="card-outer e5">
      <g class="card-inner">
        <rect class="card-bg" clip-path="url(#cardClip)" x="0" y="0" width="406" height="460" rx="16" ry="16" fill="rgba(201,164,76,0.02)" stroke="url(#goldGrad)" stroke-width="1.1" stroke-opacity="0.35" filter="url(#cardShadow)"/>
        <rect class="holo-overlay" clip-path="url(#cardClip)" x="0" y="0" width="406" height="460" rx="16" ry="16" fill="url(#holoSweep)" opacity="0"/>
        <g clip-path="url(#thumbClip)">
          <image class="thumb-img" x="10" y="10" width="386" height="220" href="https://raw.githubusercontent.com/Hassan0703/Hassan0703/main/property-rms.jpeg" preserveAspectRatio="xMidYMid slice"/>
          <rect class="thumb-sweep" x="10" y="10" width="386" height="220" fill="url(#thumbSweep)" opacity="0"/>
        </g>
        <g transform="translate(20, 255)" font-family="'Segoe UI',sans-serif">
          <g transform="translate(0, -14)">
            <rect width="68" height="22" rx="11" fill="rgba(76,175,80,0.12)" stroke="#4CAF50" stroke-width="0.7" stroke-opacity="0.6"/>
            <text x="34" y="15" text-anchor="middle" font-family="Consolas,monospace" font-size="7.5" font-weight="700" fill="#4CAF50">LIVE</text>
          </g>
          <text class="title-text" x="0" y="24" font-family="'Arial Black',sans-serif" font-weight="800" font-size="20" fill="#F5F2EA">ERPNova UI</text>
          <text x="0" y="44" font-size="12" fill="#C9A44C">Vue 3 Frappe UI Kit</text>
          <text class="desc-text" x="0" y="72" font-size="11.5" fill="#D9D3C4">Modern Vue 3 component library</text>
          <text class="desc-text" x="0" y="88" font-size="11.5" fill="#D9D3C4">for Frappe/ERPNext ecosystem.</text>
          <g transform="translate(0, 112)">
            <g transform="translate(0, 0)"><g class="tag-chip">
              <rect width="48" height="20" rx="10" fill="rgba(201,164,76,.06)" stroke="url(#goldGrad)" stroke-width="0.7" stroke-opacity="0.5"/>
              <text x="24" y="14" text-anchor="middle" font-size="8" font-weight="700" fill="#EDE7D8">Vue 3</text>
            </g>
            </g>
            <g transform="translate(52, 0)"><g class="tag-chip">
              <rect width="52" height="20" rx="10" fill="rgba(201,164,76,.06)" stroke="url(#goldGrad)" stroke-width="0.7" stroke-opacity="0.5"/>
              <text x="26" y="14" text-anchor="middle" font-size="8" font-weight="700" fill="#EDE7D8">Frappe</text>
            </g>
            </g>
          </g>
          <g transform="translate(0, 148)">
            <g transform="translate(20, 0)"><g class="btn-link">
              <rect width="140" height="34" rx="17" fill="rgba(201,164,76,.06)" stroke="url(#goldGrad)" stroke-width="0.7" stroke-opacity="0.5"/>
              <g class="btn-icon" transform="translate(14, 9)">
                              <path d="M12 0C5.37 0 0 5.37 0 12c0 5.3 3.438 9.8 8.205 11.385.6.113.82-.258.82-.577 0-.285-.01-1.04-.015-2.04-3.338.724-4.042-1.61-4.042-1.61C4.422 18.07 3.633 17.7 3.633 17.7c-1.087-.744.084-.729.084-.729 1.205.084 1.838 1.236 1.838 1.236 1.07 1.835 2.809 1.305 3.495.998.108-.776.417-1.305.76-1.605-2.665-.3-5.466-1.332-5.466-5.93 0-1.31.465-2.38 1.235-3.22-.135-.303-.54-1.523.105-3.176 0 0 1.005-.322 3.3 1.23.96-.267 1.98-.399 3-.405 1.02.006 2.04.138 3 .405 2.28-1.552 3.285-1.23 3.285-1.23.645 1.653.24 2.873.12 3.176.765.84 1.23 1.91 1.23 3.22 0 4.61-2.805 5.625-5.475 5.92.42.36.81 1.096.81 2.22 0 1.606-.015 2.896-.015 3.286 0 .315.21.69.825.57C20.565 21.795 24 17.295 24 12c0-6.63-5.37-12-12-12z" fill="#EDE7D8"/>
              </g>
              <text x="48" y="22" font-size="10.5" font-weight="600" fill="#EDE7D8">GitHub</text>
            </g>
            </g>
            <g transform="translate(205, 0)"><g class="btn-link">
              <rect width="140" height="34" rx="17" fill="rgba(201,164,76,.06)" stroke="url(#goldGrad)" stroke-width="0.7" stroke-opacity="0.5"/>
              <g class="btn-icon" transform="translate(14, 9)">
                              <path d="M23 1l-9 9m9-9v8m0-8h-8" stroke="#EDE7D8" stroke-width="2" fill="none" stroke-linecap="round" stroke-linejoin="round"/>
              <path d="M17 13v6a2 2 0 01-2 2H5a2 2 0 01-2-2V9a2 2 0 012-2h6" stroke="#EDE7D8" stroke-width="2" fill="none" stroke-linecap="round" stroke-linejoin="round"/>
              </g>
              <text x="48" y="22" font-size="10.5" font-weight="600" fill="#EDE7D8">Live Demo</text>
            </g>
            </g>
          </g>
        </g>
      </g>
    </g>
  </g>
  <!-- PROJECT 6: Nexilo Loan App -->
  <g transform="translate(932, 630)">
    <g class="card-outer e6">
      <g class="card-inner">
        <rect class="card-bg" clip-path="url(#cardClip)" x="0" y="0" width="406" height="460" rx="16" ry="16" fill="rgba(201,164,76,0.02)" stroke="url(#goldGrad)" stroke-width="1.1" stroke-opacity="0.35" filter="url(#cardShadow)"/>
        <rect class="holo-overlay" clip-path="url(#cardClip)" x="0" y="0" width="406" height="460" rx="16" ry="16" fill="url(#holoSweep)" opacity="0"/>
        <g clip-path="url(#thumbClip)">
          <image class="thumb-img" x="10" y="10" width="386" height="220" href="https://raw.githubusercontent.com/Hassan0703/Hassan0703/main/3rd.png" preserveAspectRatio="xMidYMid slice"/>
          <rect class="thumb-sweep" x="10" y="10" width="386" height="220" fill="url(#thumbSweep)" opacity="0"/>
        </g>
        <g transform="translate(20, 255)" font-family="'Segoe UI',sans-serif">
          <text class="title-text" x="0" y="24" font-family="'Arial Black',sans-serif" font-weight="800" font-size="20" fill="#F5F2EA">Nexilo Loan App</text>
          <text x="0" y="44" font-size="12" fill="#C9A44C">ERPNext × Frappe Integration</text>
          <text class="desc-text" x="0" y="72" font-size="11.5" fill="#D9D3C4">Nexilo Loan Application with</text>
          <text class="desc-text" x="0" y="88" font-size="11.5" fill="#D9D3C4">ERPNext × Frappe backend integration.</text>
          <g transform="translate(0, 112)">
            <g transform="translate(0, 0)"><g class="tag-chip">
              <rect width="52" height="20" rx="10" fill="rgba(201,164,76,.06)" stroke="url(#goldGrad)" stroke-width="0.7" stroke-opacity="0.5"/>
              <text x="26" y="14" text-anchor="middle" font-size="8" font-weight="700" fill="#EDE7D8">Python</text>
            </g>
            </g>
            <g transform="translate(0, 0)"><g class="tag-chip">
              <rect width="52" height="20" rx="10" fill="rgba(201,164,76,.06)" stroke="url(#goldGrad)" stroke-width="0.7" stroke-opacity="0.5"/>
              <text x="26" y="14" text-anchor="middle" font-size="8" font-weight="700" fill="#EDE7D8">Frappe</text>
            </g>
            </g>
            <g transform="translate(0, 0)"><g class="tag-chip">
              <rect width="58" height="20" rx="10" fill="rgba(201,164,76,.06)" stroke="url(#goldGrad)" stroke-width="0.7" stroke-opacity="0.5"/>
              <text x="29" y="14" text-anchor="middle" font-size="8" font-weight="700" fill="#EDE7D8">ERPNext</text>
            </g>
            </g>
          </g>
          <g transform="translate(0, 148)">
            <g transform="translate(20, 0)"><g class="btn-link">
              <rect width="140" height="34" rx="17" fill="rgba(201,164,76,.06)" stroke="url(#goldGrad)" stroke-width="0.7" stroke-opacity="0.5"/>
              <g class="btn-icon" transform="translate(14, 9)">
                              <path d="M12 0C5.37 0 0 5.37 0 12c0 5.3 3.438 9.8 8.205 11.385.6.113.82-.258.82-.577 0-.285-.01-1.04-.015-2.04-3.338.724-4.042-1.61-4.042-1.61C4.422 18.07 3.633 17.7 3.633 17.7c-1.087-.744.084-.729.084-.729 1.205.084 1.838 1.236 1.838 1.236 1.07 1.835 2.809 1.305 3.495.998.108-.776.417-1.305.76-1.605-2.665-.3-5.466-1.332-5.466-5.93 0-1.31.465-2.38 1.235-3.22-.135-.303-.54-1.523.105-3.176 0 0 1.005-.322 3.3 1.23.96-.267 1.98-.399 3-.405 1.02.006 2.04.138 3 .405 2.28-1.552 3.285-1.23 3.285-1.23.645 1.653.24 2.873.12 3.176.765.84 1.23 1.91 1.23 3.22 0 4.61-2.805 5.625-5.475 5.92.42.36.81 1.096.81 2.22 0 1.606-.015 2.896-.015 3.286 0 .315.21.69.825.57C20.565 21.795 24 17.295 24 12c0-6.63-5.37-12-12-12z" fill="#EDE7D8"/>
              </g>
              <text x="48" y="22" font-size="10.5" font-weight="600" fill="#EDE7D8">GitHub</text>
            </g>
            </g>
            <g transform="translate(205, 0)"><g class="btn-link">
              <rect width="140" height="34" rx="17" fill="rgba(201,164,76,.06)" stroke="url(#goldGrad)" stroke-width="0.7" stroke-opacity="0.5"/>
              <g class="btn-icon" transform="translate(14, 9)">
                              <path d="M23 1l-9 9m9-9v8m0-8h-8" stroke="#EDE7D8" stroke-width="2" fill="none" stroke-linecap="round" stroke-linejoin="round"/>
              <path d="M17 13v6a2 2 0 01-2 2H5a2 2 0 01-2-2V9a2 2 0 012-2h6" stroke="#EDE7D8" stroke-width="2" fill="none" stroke-linecap="round" stroke-linejoin="round"/>
              </g>
              <text x="48" y="22" font-size="10.5" font-weight="600" fill="#EDE7D8">Live Demo</text>
            </g>
            </g>
          </g>
        </g>
      </g>
    </g>
  </g>

  <!-- DECORATIVE CODE BRACKETS -->
  <g opacity="0.3">
    <text x="50" y="145" font-family="Consolas,monospace" font-size="14" fill="url(#goldGrad)" opacity="0.5">&lt;projects&gt;</text>
    <text x="1310" y="1105" font-family="Consolas,monospace" font-size="14" fill="url(#goldGrad)" opacity="0.5">&lt;/projects&gt;</text>
  </g>
</g>
</svg>