<svg width="1400" height="480" viewBox="0 0 1400 480" xmlns="http://www.w3.org/2000/svg">
<defs>
  <linearGradient id="bgGrad" x1="0%" y1="0%" x2="100%" y2="100%">
    <stop offset="0%" stop-color="#0A0806"/>
    <stop offset="55%" stop-color="#14100B"/>
    <stop offset="100%" stop-color="#1C160E"/>
  </linearGradient>
  <linearGradient id="goldGrad" x1="0%" y1="0%" x2="100%" y2="0%">
    <stop offset="0%" stop-color="#E8C77E"/>
    <stop offset="50%" stop-color="#C9A44C"/>
    <stop offset="100%" stop-color="#9C7A2E"/>
  </linearGradient>
  <linearGradient id="holoSweep" x1="0%" y1="0%" x2="100%" y2="0%">
    <stop offset="0%" stop-color="#E8C77E" stop-opacity="0"/>
    <stop offset="40%" stop-color="#E8C77E" stop-opacity="0"/>
    <stop offset="50%" stop-color="#FFF8E7" stop-opacity="0.35"/>
    <stop offset="60%" stop-color="#E8C77E" stop-opacity="0"/>
    <stop offset="100%" stop-color="#E8C77E" stop-opacity="0"/>
  </linearGradient>
  <radialGradient id="vignette" cx="50%" cy="50%" r="80%">
    <stop offset="0%" stop-color="#000000" stop-opacity="0"/>
    <stop offset="100%" stop-color="#000000" stop-opacity="0.3"/>
  </radialGradient>
  <filter id="cardShadow" x="-20%" y="-20%" width="140%" height="140%">
    <feDropShadow dx="0" dy="2" stdDeviation="5" flood-color="#000000" flood-opacity="0.4"/>
  </filter>
  <filter id="goldGlow" x="-80%" y="-80%" width="260%" height="260%">
    <feGaussianBlur stdDeviation="3" result="b"/>
    <feMerge><feMergeNode in="b"/><feMergeNode in="SourceGraphic"/></feMerge>
  </filter>
  <pattern id="hexPattern" width="46" height="80" patternUnits="userSpaceOnUse">
    <path d="M23 0 L46 13 L46 40 L23 53 L0 40 L0 13 Z" fill="none" stroke="#C9A44C" stroke-opacity="0.03" stroke-width="1"/>
    <path d="M23 40 L46 53 L46 80 L23 93 L0 80 L0 53 Z" fill="none" stroke="#C9A44C" stroke-opacity="0.03" stroke-width="1"/>
  </pattern>
  <clipPath id="canvasClip"><rect x="0" y="0" width="1400" height="480" rx="20" ry="20"/></clipPath>
  <style>
    <![CDATA[
      @keyframes fadeInUp { 0% { transform: translateY(12px); opacity: 0; } 100% { transform: translateY(0); opacity: 1; } }
      @keyframes holoSweep { 0% { transform: translateX(-800px); opacity: 0; } 10% { opacity: 1; } 90% { opacity: 1; } 100% { transform: translateX(800px); opacity: 0; } }
      .tech-card { transition: transform 0.3s ease, filter 0.3s ease; }
      .tech-card:hover { transform: translateY(-2px); filter: url(#hoverShadow); }
      .tech-card:hover .card-bg { stroke-opacity: 0.7; fill: rgba(201,164,76,0.06); transition: fill 0.3s ease, stroke-opacity 0.3s ease; }
      .tech-card:hover .holo-overlay { animation: holoSweep 0.5s ease forwards; }
      .tech-card:hover .cat-title { fill: #F5F2EA; transition: fill 0.3s ease; }
      .card-bg { transition: fill 0.3s ease, stroke-opacity 0.3s ease; }
      .holo-overlay { opacity: 0; pointer-events: none; }
      .cat-title { transition: fill 0.3s ease; }
      .tech-pill { transition: transform 0.25s ease, filter 0.25s ease; }
      .tech-pill:hover { transform: scale(1.03); filter: url(#hoverShadow); }
      .tech-pill:hover .pill-rect { fill: rgba(201,164,76,0.1); stroke-opacity: 0.7; transition: fill 0.25s ease, stroke-opacity 0.25s ease; }
      .pill-rect { transition: fill 0.25s ease, stroke-opacity 0.25s ease; }
      .fade-el { opacity: 0; }
      .fade-el.h { animation: fadeInUp 0.5s ease 0s forwards; }
      .fade-el.c1 { animation: fadeInUp 0.4s ease 0.1s forwards; }
      .fade-el.c2 { animation: fadeInUp 0.4s ease 0.2s forwards; }
      .fade-el.c3 { animation: fadeInUp 0.4s ease 0.3s forwards; }
      .fade-el.c4 { animation: fadeInUp 0.4s ease 0.4s forwards; }
    ]]>
  </style>

  <filter id="hoverShadow" x="-50%" y="-50%" width="200%" height="200%">
    <feDropShadow dx="0" dy="4" stdDeviation="8" flood-color="#C9A44C" flood-opacity="0.2"/>
  </filter>
</defs>
<g clip-path="url(#canvasClip)">
  <rect x="0" y="0" width="1400" height="480" fill="url(#bgGrad)"/>
  <rect x="0" y="0" width="1400" height="480" fill="url(#hexPattern)"/>
  <rect x="0" y="0" width="1400" height="480" fill="url(#vignette)"/>
  <rect x="1.5" y="1.5" width="1397" height="477" rx="19" ry="19" fill="none" stroke="url(#goldGrad)" stroke-width="0.8" stroke-opacity="0.3"/>
  <text class="fade-el h" x="700" y="55" text-anchor="middle" font-family="'Arial Black','Segoe UI',sans-serif" font-weight="800" font-size="28" fill="#F5F2EA">Tech Radar</text>
  <rect class="fade-el h" x="590" y="70" width="220" height="2.5" rx="1.25" fill="url(#goldGrad)"/>
  <text class="fade-el h" x="700" y="93" text-anchor="middle" font-family="Consolas,monospace" font-size="10" fill="#8A8272" letter-spacing="2">SKILL LANDSCAPE</text>
  <!-- Radar visualization (decorative) -->
  <g transform="translate(700, 300)" opacity="0.06">
    <circle cx="0" cy="0" r="140" fill="none" stroke="url(#goldGrad)" stroke-width="0.8"/>
    <circle cx="0" cy="0" r="100" fill="none" stroke="url(#goldGrad)" stroke-width="0.6"/>
    <circle cx="0" cy="0" r="60" fill="none" stroke="url(#goldGrad)" stroke-width="0.4"/>
    <circle cx="0" cy="0" r="20" fill="none" stroke="url(#goldGrad)" stroke-width="0.3"/>
    <line x1="-140" y1="0" x2="140" y2="0" stroke="url(#goldGrad)" stroke-width="0.5"/>
    <line x1="0" y1="-140" x2="0" y2="140" stroke="url(#goldGrad)" stroke-width="0.5"/>
    <line x1="-99" y1="-99" x2="99" y2="99" stroke="url(#goldGrad)" stroke-width="0.4"/>
    <line x1="99" y1="-99" x2="-99" y2="99" stroke="url(#goldGrad)" stroke-width="0.4"/>
  </g>
  <!-- Category: Using -->
  <g transform="translate(55, 120)"><g class="fade-el c1"><g class="tech-card">
    <rect class="card-bg" x="0" y="0" width="300" height="220" rx="14" fill="rgba(201,164,76,0.02)" stroke="url(#goldGrad)" stroke-width="0.8" stroke-opacity="0.3" filter="url(#cardShadow)"/>
    <rect class="holo-overlay" x="0" y="0" width="300" height="220" rx="14" fill="url(#holoSweep)" opacity="0"/>
    <g transform="translate(20, 16)">
      <rect x="0" y="0" width="24" height="24" rx="7" fill="rgba(76,175,80,0.08)" stroke="#4CAF50" stroke-width="0.7" stroke-opacity="0.5"/>
      <path d="M8 12l2 2 4-4" fill="none" stroke="#4CAF50" stroke-width="1.5" stroke-linecap="round" stroke-linejoin="round"/>
    </g>
    <text class="cat-title" x="56" y="33" font-family="'Segoe UI',sans-serif" font-weight="700" font-size="16" fill="#EDE7D8">Using</text>
    <text x="56" y="50" font-family="'Segoe UI',sans-serif" font-size="9" fill="#6A6358">Daily drivers</text>
    <g transform="translate(20, 68)">
      <g class="tech-pill"><rect class="pill-rect" x="0" y="0" width="82" height="28" rx="14" fill="rgba(201,164,76,0.04)" stroke="url(#goldGrad)" stroke-width="0.6" stroke-opacity="0.3"/><text x="41" y="18" text-anchor="middle" font-family="'Segoe UI',sans-serif" font-size="11" font-weight="600" fill="#D9D3C4">Python</text></g>
      <g transform="translate(0, 36)"><g class="tech-pill"><rect class="pill-rect" x="0" y="0" width="90" height="28" rx="14" fill="rgba(201,164,76,0.04)" stroke="url(#goldGrad)" stroke-width="0.6" stroke-opacity="0.3"/><text x="45" y="18" text-anchor="middle" font-family="'Segoe UI',sans-serif" font-size="11" font-weight="600" fill="#D9D3C4">ERPNext</text></g></g>
      <g transform="translate(0, 72)"><g class="tech-pill"><rect class="pill-rect" x="0" y="0" width="82" height="28" rx="14" fill="rgba(201,164,76,0.04)" stroke="url(#goldGrad)" stroke-width="0.6" stroke-opacity="0.3"/><text x="41" y="18" text-anchor="middle" font-family="'Segoe UI',sans-serif" font-size="11" font-weight="600" fill="#D9D3C4">Frappe</text></g></g>
      <g transform="translate(96, 0)"><g class="tech-pill"><rect class="pill-rect" x="0" y="0" width="88" height="28" rx="14" fill="rgba(201,164,76,0.04)" stroke="url(#goldGrad)" stroke-width="0.6" stroke-opacity="0.3"/><text x="44" y="18" text-anchor="middle" font-family="'Segoe UI',sans-serif" font-size="11" font-weight="600" fill="#D9D3C4">MariaDB</text></g></g>
    </g>
  </g></g></g>
  <!-- Category: Learning -->
  <g transform="translate(385, 120)"><g class="fade-el c2"><g class="tech-card">
    <rect class="card-bg" x="0" y="0" width="300" height="220" rx="14" fill="rgba(201,164,76,0.02)" stroke="url(#goldGrad)" stroke-width="0.8" stroke-opacity="0.3" filter="url(#cardShadow)"/>
    <rect class="holo-overlay" x="0" y="0" width="300" height="220" rx="14" fill="url(#holoSweep)" opacity="0"/>
    <g transform="translate(20, 16)">
      <rect x="0" y="0" width="24" height="24" rx="7" fill="rgba(66,165,245,0.08)" stroke="#42A5F5" stroke-width="0.7" stroke-opacity="0.5"/>
      <path d="M12 6v6l4 2" fill="none" stroke="#42A5F5" stroke-width="1.5" stroke-linecap="round" stroke-linejoin="round"/>
      <circle cx="12" cy="12" r="9" fill="none" stroke="#42A5F5" stroke-width="1.5"/>
    </g>
    <text class="cat-title" x="56" y="33" font-family="'Segoe UI',sans-serif" font-weight="700" font-size="16" fill="#EDE7D8">Learning</text>
    <text x="56" y="50" font-family="'Segoe UI',sans-serif" font-size="9" fill="#6A6358">Currently studying</text>
    <g transform="translate(20, 68)">
      <g class="tech-pill"><rect class="pill-rect" x="0" y="0" width="80" height="28" rx="14" fill="rgba(201,164,76,0.04)" stroke="url(#goldGrad)" stroke-width="0.6" stroke-opacity="0.3"/><text x="40" y="18" text-anchor="middle" font-family="'Segoe UI',sans-serif" font-size="11" font-weight="600" fill="#D9D3C4">Docker</text></g>
      <g transform="translate(0, 36)"><g class="tech-pill"><rect class="pill-rect" x="0" y="0" width="88" height="28" rx="14" fill="rgba(201,164,76,0.04)" stroke="url(#goldGrad)" stroke-width="0.6" stroke-opacity="0.3"/><text x="44" y="18" text-anchor="middle" font-family="'Segoe UI',sans-serif" font-size="11" font-weight="600" fill="#D9D3C4">Next.js</text></g></g>
      <g transform="translate(0, 72)"><g class="tech-pill"><rect class="pill-rect" x="0" y="0" width="96" height="28" rx="14" fill="rgba(201,164,76,0.04)" stroke="url(#goldGrad)" stroke-width="0.6" stroke-opacity="0.3"/><text x="48" y="18" text-anchor="middle" font-family="'Segoe UI',sans-serif" font-size="11" font-weight="600" fill="#D9D3C4">AI Agents</text></g></g>
    </g>
  </g></g></g>
  <!-- Category: Exploring -->
  <g transform="translate(715, 120)"><g class="fade-el c3"><g class="tech-card">
    <rect class="card-bg" x="0" y="0" width="300" height="220" rx="14" fill="rgba(201,164,76,0.02)" stroke="url(#goldGrad)" stroke-width="0.8" stroke-opacity="0.3" filter="url(#cardShadow)"/>
    <rect class="holo-overlay" x="0" y="0" width="300" height="220" rx="14" fill="url(#holoSweep)" opacity="0"/>
    <g transform="translate(20, 16)">
      <rect x="0" y="0" width="24" height="24" rx="7" fill="rgba(255,183,77,0.08)" stroke="#FFB74D" stroke-width="0.7" stroke-opacity="0.5"/>
      <path d="M12 2a10 10 0 1010 10" fill="none" stroke="#FFB74D" stroke-width="1.5" stroke-linecap="round"/>
      <circle cx="12" cy="12" r="3" fill="none" stroke="#FFB74D" stroke-width="1.5"/>
    </g>
    <text class="cat-title" x="56" y="33" font-family="'Segoe UI',sans-serif" font-weight="700" font-size="16" fill="#EDE7D8">Exploring</text>
    <text x="56" y="50" font-family="'Segoe UI',sans-serif" font-size="9" fill="#6A6358">Experimenting with</text>
    <g transform="translate(20, 68)">
      <g class="tech-pill"><rect class="pill-rect" x="0" y="0" width="68" height="28" rx="14" fill="rgba(201,164,76,0.04)" stroke="url(#goldGrad)" stroke-width="0.6" stroke-opacity="0.3"/><text x="34" y="18" text-anchor="middle" font-family="'Segoe UI',sans-serif" font-size="11" font-weight="600" fill="#D9D3C4">Rust</text></g>
      <g transform="translate(0, 36)"><g class="tech-pill"><rect class="pill-rect" x="0" y="0" width="62" height="28" rx="14" fill="rgba(201,164,76,0.04)" stroke="url(#goldGrad)" stroke-width="0.6" stroke-opacity="0.3"/><text x="31" y="18" text-anchor="middle" font-family="'Segoe UI',sans-serif" font-size="11" font-weight="600" fill="#D9D3C4">Go</text></g></g>
      <g transform="translate(76, 0)"><g class="tech-pill"><rect class="pill-rect" x="0" y="0" width="112" height="28" rx="14" fill="rgba(201,164,76,0.04)" stroke="url(#goldGrad)" stroke-width="0.6" stroke-opacity="0.3"/><text x="56" y="18" text-anchor="middle" font-family="'Segoe UI',sans-serif" font-size="11" font-weight="600" fill="#D9D3C4">Kubernetes</text></g></g>
    </g>
  </g></g></g>
  <!-- Category: Future -->
  <g transform="translate(1045, 120)"><g class="fade-el c4"><g class="tech-card">
    <rect class="card-bg" x="0" y="0" width="300" height="220" rx="14" fill="rgba(201,164,76,0.02)" stroke="url(#goldGrad)" stroke-width="0.8" stroke-opacity="0.3" filter="url(#cardShadow)"/>
    <rect class="holo-overlay" x="0" y="0" width="300" height="220" rx="14" fill="url(#holoSweep)" opacity="0"/>
    <g transform="translate(20, 16)">
      <rect x="0" y="0" width="24" height="24" rx="7" fill="rgba(201,164,76,0.08)" stroke="url(#goldGrad)" stroke-width="0.7" stroke-opacity="0.5"/>
      <path d="M12 2v20M2 12h20" fill="none" stroke="url(#goldGrad)" stroke-width="1.5" stroke-linecap="round"/>
      <path d="M5 5l4 4m6-4l-4 4m4 6l-4-4m-6 4l4-4" fill="none" stroke="url(#goldGrad)" stroke-width="1.2" stroke-linecap="round"/>
    </g>
    <text class="cat-title" x="56" y="33" font-family="'Segoe UI',sans-serif" font-weight="700" font-size="16" fill="#EDE7D8">Future</text>
    <text x="56" y="50" font-family="'Segoe UI',sans-serif" font-size="9" fill="#6A6358">Next on the list</text>
    <g transform="translate(20, 68)">
      <g class="tech-pill"><rect class="pill-rect" x="0" y="0" width="130" height="28" rx="14" fill="rgba(201,164,76,0.04)" stroke="url(#goldGrad)" stroke-width="0.6" stroke-opacity="0.3"/><text x="65" y="18" text-anchor="middle" font-family="'Segoe UI',sans-serif" font-size="11" font-weight="600" fill="#D9D3C4">Cloud Native</text></g>
      <g transform="translate(0, 36)"><g class="tech-pill"><rect class="pill-rect" x="0" y="0" width="72" height="28" rx="14" fill="rgba(201,164,76,0.04)" stroke="url(#goldGrad)" stroke-width="0.6" stroke-opacity="0.3"/><text x="36" y="18" text-anchor="middle" font-family="'Segoe UI',sans-serif" font-size="11" font-weight="600" fill="#D9D3C4">LLMs</text></g></g>
      <g transform="translate(86, 36)"><g class="tech-pill"><rect class="pill-rect" x="0" y="0" width="114" height="28" rx="14" fill="rgba(201,164,76,0.04)" stroke="url(#goldGrad)" stroke-width="0.6" stroke-opacity="0.3"/><text x="57" y="18" text-anchor="middle" font-family="'Segoe UI',sans-serif" font-size="11" font-weight="600" fill="#D9D3C4">Automation</text></g></g>
    </g>
  </g></g></g>
</g>
</svg>
